<?xml version="1.0" encoding="UTF-8"?>
<svg width="90px" height="63px" viewBox="0 0 90 63" version="1.1" xmlns="http://www.w3.org/2000/svg" xmlns:xlink="http://www.w3.org/1999/xlink">
    <!-- Generator: Sketch 48.2 (47327) - http://www.bohemiancoding.com/sketch -->
    <title>Group 8</title>
    <desc>Created with Sketch.</desc>
    <defs></defs>
    <g id="1920" stroke="none" stroke-width="1" fill="none" fill-rule="evenodd" transform="translate(-327.000000, -463.000000)" stroke-linecap="round" stroke-linejoin="round">
        <g id="Group-2" transform="translate(37.000000, 326.000000)" stroke="#359EE6" stroke-width="3">
            <g id="Group-Copy" transform="translate(271.000000, 0.000000)">
                <g id="Group-2" transform="translate(20.000000, 138.000000)">
                    <g id="Group-8">
                        <g id="heart-copy" transform="translate(0.010101, 0.000000)">
                            <path d="M62.7326275,5.90204538 C59.4047998,2.57265512 54.8903588,0.70209174 50.1829947,0.70209174 C45.4756306,0.70209174 40.9611897,2.57265512 37.6333619,5.90204538 L34.2136677,9.32173966 L30.7939734,5.90204538 C23.8630026,-1.02892525 12.6256787,-1.02892516 5.69470801,5.90204557 C-1.23626272,12.8330163 -1.2362628,24.0703401 5.69470782,31.0013109 L9.1144021,34.4210052 L34.2136677,59.5202708 L46.1717172,46.3636364 C38.1610736,38.7961678 33.615619,33.038592 32.5353535,29.0909091 C31.3744334,24.8484848 32.5865546,20.6060606 36.1717172,16.3636364 C36.7842946,15.7513464 38.3597565,13.7840677 41.6262626,12.594944 C44.112471,11.6898763 48.0010606,11.3276659 50.7171717,11.8181818 C55.2218083,12.6316963 59.4413677,19.459779 59.8080808,18.4516782 C60.5086789,16.5257216 60.7171717,16.3636364 63.4444444,14.5454545 C65.2343901,13.3521574 66.4910642,13.0192915 66.9381471,12.594944 C66.0655152,10.0995216 64.637953,7.80647665 62.7326275,5.90204538 Z" id="Shape"></path>
                        </g>
                        <g id="heart" transform="translate(31.727273, 10.909091)">
                            <path d="M51.1896048,5.13962313 C48.4789938,2.42773939 44.8018523,0.904111942 40.9675694,0.904111942 C37.1332865,0.904111942 33.4561451,2.42773939 30.7455341,5.13962313 L27.9600951,7.92506207 L25.1746562,5.13962313 C19.5291819,-0.505850976 10.3760598,-0.505850908 4.73058559,5.13962328 C-0.914888592,10.7850975 -0.91488866,19.9382196 4.73058544,25.5836939 L7.51602439,28.3691328 L27.9600951,48.8132035 L48.4041659,28.3691328 L51.1896048,25.5836939 C53.9014885,22.8730828 55.425116,19.1959414 55.425116,15.3616585 C55.425116,11.5273756 53.9014885,7.85023414 51.1896048,5.13962313 Z" id="Shape"></path>
                        </g>
                    </g>
                </g>
            </g>
        </g>
    </g>
</svg>