<?xml version="1.0" encoding="UTF-8"?>
<svg width="64px" height="64px" viewBox="0 0 64 64" version="1.1" xmlns="http://www.w3.org/2000/svg" xmlns:xlink="http://www.w3.org/1999/xlink">
    <!-- Generator: Sketch 48.2 (47327) - http://www.bohemiancoding.com/sketch -->
    <title>command</title>
    <desc>Created with Sketch.</desc>
    <defs></defs>
    <g id="1920" stroke="none" stroke-width="1" fill="none" fill-rule="evenodd" transform="translate(-867.000000, -462.000000)" stroke-linecap="round" stroke-linejoin="round">
        <g id="Group-2" transform="translate(37.000000, 326.000000)" stroke="#FDCF54" stroke-width="3">
            <g id="Group-Copy-3" transform="translate(814.000000, 0.000000)">
                <g id="Group-10" transform="translate(18.000000, 138.000000)">
                    <g id="command">
                        <path d="M50,0 C44.4771525,0 40,4.4771525 40,10 L40,50 C40,55.5228475 44.4771525,60 50,60 C55.5228475,60 60,55.5228475 60,50 C60,44.4771525 55.5228475,40 50,40 L10,40 C4.4771525,40 0,44.4771525 0,50 C0,55.5228475 4.4771525,60 10,60 C15.5228475,60 20,55.5228475 20,50 L20,10 C20,4.4771525 15.5228475,0 10,0 C4.4771525,0 0,4.4771525 0,10 C-2.96059473e-15,15.5228475 4.4771525,20 10,20 L50,20 C55.5228475,20 60,15.5228475 60,10 C60,4.4771525 55.5228475,0 50,0 Z" id="Shape"></path>
                    </g>
                </g>
            </g>
        </g>
    </g>
</svg>