<?xml version="1.0" encoding="UTF-8"?>
<svg width="64px" height="64px" viewBox="0 0 64 64" version="1.1" xmlns="http://www.w3.org/2000/svg" xmlns:xlink="http://www.w3.org/1999/xlink">
    <!-- Generator: Sketch 48.2 (47327) - http://www.bohemiancoding.com/sketch -->
    <title>music</title>
    <desc>Created with Sketch.</desc>
    <defs></defs>
    <g id="1920" stroke="none" stroke-width="1" fill="none" fill-rule="evenodd" transform="translate(-597.000000, -882.000000)" stroke-linecap="round" stroke-linejoin="round">
        <g id="Group-2-Copy" transform="translate(37.000000, 746.000000)" stroke="#FF66B3" stroke-width="3">
            <g id="Group-Copy" transform="translate(541.666667, 0.000000)">
                <g id="Group-16" transform="translate(20.000000, 138.000000)">
                    <g id="music">
                        <path d="M20,46.6666667 L6.66666667,46.6666667 C2.98476833,46.6666667 0,49.651435 0,53.3333333 C0,57.0152317 2.98476833,60 6.66666667,60 L13.3333333,60 C17.0152317,60 20,57.0152317 20,53.3333333 L20,46.6666667 Z M60,40 L46.6666667,40 C42.9847683,40 40,42.9847683 40,46.6666667 C40,50.348565 42.9847683,53.3333333 46.6666667,53.3333333 L53.3333333,53.3333333 C57.0152317,53.3333333 60,50.348565 60,46.6666667 L60,40 Z" id="Shape"></path>
                        <polyline id="Shape" points="20 46.6666667 20 6.66666667 60 0 60 40"></polyline>
                    </g>
                </g>
            </g>
        </g>
    </g>
</svg>