<?xml version="1.0" encoding="UTF-8"?>
<svg width="58px" height="64px" viewBox="0 0 58 64" version="1.1" xmlns="http://www.w3.org/2000/svg" xmlns:xlink="http://www.w3.org/1999/xlink">
    <!-- Generator: Sketch 48.2 (47327) - http://www.bohemiancoding.com/sketch -->
    <title>noun_748729_cc</title>
    <desc>Created with Sketch.</desc>
    <defs></defs>
    <g id="1280" stroke="none" stroke-width="1" fill="none" fill-rule="evenodd" transform="translate(-298.000000, -470.000000)">
        <g id="Экран-2" transform="translate(-23.000000, 0.000000)" fill="#64296D" fill-rule="nonzero" stroke="#64296D">
            <g id="карточка" transform="translate(268.000000, 309.000000)">
                <g id="Group-3" transform="translate(54.000000, 161.000000)">
                    <g id="noun_748729_cc" transform="translate(0.162037, 0.500000)">
                        <path d="M56.0904167,26.3001667 L51.0218333,8.94716667 C50.9133333,8.57383333 50.5709167,8.31775 50.1824167,8.31775 L21.8744167,8.31775 L21.8744167,0.879083333 C21.8744167,0.396083333 21.4824167,0.00408333333 20.9994167,0.00408333333 L12.6869167,0.00408333333 C12.2039167,0.00408333333 11.8119167,0.396083333 11.8119167,0.879083333 L11.8119167,8.31775 L5.96283333,8.31775 C5.57433333,8.31775 5.23191667,8.57383333 5.12341667,8.94716667 L0.0548333333,26.3001667 C-0.02275,26.565 0.0291666667,26.8496667 0.19425,27.0701667 C0.359333333,27.2906667 0.618916667,27.42075 0.89425,27.42075 L3.41833333,27.42075 L3.41833333,61.64025 C3.41833333,62.12325 3.81033333,62.51525 4.29333333,62.51525 L51.8525,62.51525 C52.3355,62.51525 52.7275,62.12325 52.7275,61.64025 L52.7275,27.42075 L55.251,27.42075 C55.5269167,27.42075 55.7865,27.2906667 55.9515833,27.0701667 C56.1166667,26.8496667 56.168,26.565 56.0904167,26.3001667 Z M13.5619167,1.75408333 L20.1244167,1.75408333 L20.1244167,8.31775 L13.5619167,8.31775 L13.5619167,1.75408333 Z M6.61908333,10.06775 L49.5255833,10.06775 L50.60475,13.7596667 L5.5405,13.7596667 L6.61908333,10.06775 Z M44.67225,15.5096667 L44.67225,25.67075 L37.6845,25.67075 L37.6845,15.5096667 L44.67225,15.5096667 Z M35.9345,15.5096667 L35.9345,25.67075 L28.9473333,25.67075 L28.9473333,15.5096667 L35.9345,15.5096667 Z M27.1973333,15.5096667 L27.1973333,25.67075 L20.2101667,25.67075 L20.2101667,15.5096667 L27.1973333,15.5096667 Z M18.4601667,15.5096667 L18.4601667,25.67075 L11.4724167,25.67075 L11.4724167,15.5096667 L18.4601667,15.5096667 Z M2.06091667,25.67075 L5.02891667,15.5096667 L9.72241667,15.5096667 L9.72241667,25.67075 L2.06091667,25.67075 Z M50.9769167,60.76525 L5.16775,60.76525 L5.16775,27.42075 L50.9769167,27.42075 L50.9769167,60.76525 Z M46.42225,25.67075 L46.42225,15.5096667 L51.1163333,15.5096667 L54.0843333,25.67075 L46.42225,25.67075 Z" id="Shape"></path>
                        <path d="M11.9571667,53.8896667 L24.0123333,53.8896667 C24.4953333,53.8896667 24.8873333,53.4976667 24.8873333,53.0146667 L24.8873333,42.2743333 C24.8873333,38.4686667 21.791,35.37175 17.9853333,35.37175 C14.1790833,35.37175 11.0821667,38.4686667 11.0821667,42.2743333 L11.0821667,53.0146667 C11.0821667,53.4976667 11.4741667,53.8896667 11.9571667,53.8896667 Z M12.8321667,42.2743333 C12.8321667,39.4335 15.1439167,37.12175 17.9853333,37.12175 C20.8261667,37.12175 23.1373333,39.4335 23.1373333,42.2743333 L23.1373333,44.7021667 L12.8321667,44.7021667 L12.8321667,42.2743333 Z M12.8321667,46.4521667 L23.1373333,46.4521667 L23.1373333,52.1396667 L12.8321667,52.1396667 L12.8321667,46.4521667 Z" id="Shape"></path>
                        <path d="M32.1323333,53.8896667 L44.1875,53.8896667 C44.6705,53.8896667 45.0625,53.4976667 45.0625,53.0146667 L45.0625,42.2743333 C45.0625,38.4686667 41.9655833,35.37175 38.1593333,35.37175 C34.3530833,35.37175 31.2573333,38.4686667 31.2573333,42.2743333 L31.2573333,53.0146667 C31.2573333,53.4976667 31.6493333,53.8896667 32.1323333,53.8896667 Z M33.0073333,42.2743333 C33.0073333,39.4335 35.3179167,37.12175 38.1593333,37.12175 C41.00075,37.12175 43.3125,39.4335 43.3125,42.2743333 L43.3125,44.7021667 L33.0073333,44.7021667 L33.0073333,42.2743333 Z M33.0073333,46.4521667 L43.3125,46.4521667 L43.3125,52.1396667 L33.0073333,52.1396667 L33.0073333,46.4521667 Z" id="Shape"></path>
                    </g>
                </g>
            </g>
        </g>
    </g>
</svg>